<svg width="1545.9999999999998" height="638" xmlns="http://www.w3.org/2000/svg" data-name="Layer 1">

 <g>
  <title>Layer 1</title>
  <path fill="#e6e6e6" d="m12.59743,590.83755a158.3937,158.3937 0 0 0 7.4,43.785c0.1,0.329 0.211,0.653 0.319,0.982l27.613,0c-0.029,-0.295 -0.059,-0.624 -0.088,-0.982c-1.841,-21.166 8.677,-148.453 21.369,-170.483c-1.112,1.78699 -58.754,59.44397 -56.613,126.698z" data-name="Path 133" id="e8d007e8-8581-4ac8-8421-0613b3e5935f-59"/>
  <path fill="#e6e6e6" d="m14.66943,634.62253c0.231,0.329 0.471,0.658 0.717,0.982l20.716,0c-0.157,-0.28 -0.339,-0.609 -0.55,-0.982c-3.422,-6.176 -13.551,-24.642 -22.953,-43.785c-10.1,-20.572 -19.374,-41.924 -18.593,-49.652c-0.242,1.74199 -7.234,54.87602 20.663,93.437z" data-name="Path 134" id="f8d01cab-c1a6-42c6-a30a-ae051f1ede34-60"/>
  <path fill="#e6e6e6" d="m350.44759,612.86019a80.47349,80.47349 0 0 0 3.75964,22.24541c0.05081,0.16715 0.1072,0.33178 0.16207,0.49892l14.02913,0c-0.01473,-0.14987 -0.03,-0.317 -0.04472,-0.49892c-0.93534,-10.75361 4.40844,-75.42309 10.85674,-86.61567c-0.56502,0.90792 -29.85061,30.20115 -28.76286,64.37026z" data-name="Path 133" id="fd51cc05-38fd-444b-9e70-38f0335b4e21-61"/>
  <path fill="#e6e6e6" d="m351.50032,635.1056c0.11735,0.16715 0.2393,0.33432 0.36428,0.49892l10.525,0c-0.07977,-0.14227 -0.17223,-0.30942 -0.27943,-0.49892c-1.73858,-3.13779 -6.88472,-12.51963 -11.66151,-22.24541c-5.13141,-10.45183 -9.84316,-21.29993 -9.44636,-25.2262c-0.12299,0.88501 -3.67533,27.88027 10.49802,47.47161z" data-name="Path 134" id="ef6d185a-ee65-40f0-bfea-de8a051c0d9b-62"/>
  <polygon id="svg_1" fill="#3f3d56" points="267.3916164636612,182.15699768066406 231.68188440799713,207.5570068359375 253.90164148807526,209.93699645996094 284.85163843631744,183.7469940185547 267.3916164636612,182.15699768066406 "/>
  <polygon id="svg_2" fill="#9f616a" points="127.68145716190338,615.844970703125 149.15945398807526,615.843994140625 159.3774563074112,533 127.67744410037994,533.0009765625 127.68145716190338,615.844970703125 "/>
  <path id="svg_3" fill="#2f2e41" d="m122.20237,608.83288l42.29822,-0.00171l0.00171,0a26.9572,26.9572 0 0 1 26.95574,26.95531l0,0.87595l-69.25439,0.00257l-0.00128,-27.83212z"/>
  <path id="svg_4" fill="#2f2e41" d="m114.17815,319.94488s-9.30846,10.52212 6.10492,51.53862l-2.71492,224.90233l49.95,-0.97447l10.97957,-109.70559l19.99046,-160.0916l-84.31003,-5.66929z"/>
  <path id="svg_5" fill="#536dfe" d="m64.30754,284.44189a11.34431,11.34431 0 0 1 -11.30957,-11.04248l-2.344,-88.33789l40.10864,-76.09277a11.412,11.412 0 0 1 9.30713,-6.03027l30.56641,-1.96241l-2.63941,178.065l-62.69507,5.35839q-0.49913,0.04317 -0.99413,0.04243z"/>
  <path id="svg_6" fill="#3f3d56" d="m215.61957,351.03909l-0.54688,-0.0835c-63.8999,-9.7456 -112.11987,-19.08837 -112.59949,-19.18164l-0.599,-0.11621l16.75085,-40.74218c-0.13232,-4.25733 -3.7583,-123.80811 3.183,-158.15625c6.71961,-33.251 38.39356,-38.7002 42.00293,-39.21289l3.62427,-12.00831l45.78735,23.82569l7.9856,27.48388l1.62207,75.32666l-7.2107,142.86475z"/>
  <path id="svg_7" fill="#536dfe" d="m152.69643,237c-29.5,0 -53.5,-32.07471 -53.5,-71.5s24,-71.5 53.5,-71.5s53.5,32.07471 53.5,71.5s-24,71.5 -53.5,71.5zm0,-136c-25.64014,0 -46.5,28.93457 -46.5,64.5s20.85986,64.5 46.5,64.5s46.5,-28.93457 46.5,-64.5s-20.85983,-64.5 -46.5,-64.5z"/>
  <path id="svg_8" fill="#9f616a" d="m243.19672,196.00003a14.94241,14.94241 0 0 0 -10.97706,4.80072l-76.96093,0l-28.19043,6.00061l4.62842,35.69867l100.28125,-21.56671a14.99351,14.99351 0 1 0 11.21875,-24.93329z"/>
  <circle transform="rotate(-45 -219.904 224.865)" id="svg_9" fill="#9f616a" r="37.09102" cy="406.31534" cx="208.48663"/>
  <path id="svg_10" fill="#2f2e41" d="m176.43392,20.59989l-1.79814,-3.61914l9.04786,-4.49538s9.98123,-16.24054 28.04264,-11.67659s26.18751,7.29537 26.18751,7.29537l9.025,4.54106l-4.52959,4.5068l8.12591,2.73152l-5.42868,2.69721l6.31641,3.63055l-3.40026,18.61145s-5.6476,-14.11607 -16.50495,-8.72165s-30.7171,-2.78858 -30.7171,-2.78858l-17.25377,33.39145s-3.55945,-11.70537 -9.90574,-8.58418c-0.0001,0.00005 -16.21322,-25.82052 2.7929,-37.51989z"/>
  <path id="svg_11" fill="#ffb7b7" d="m498.72134,248.94809l-1.5852,-29.73352l-16,-13l-9.26929,27.53357l-51.84253,69.14337a12.99334,12.99334 0 1 0 15.04883,12.82306c0,-0.17493 -0.01929,-0.34491 -0.02612,-0.51813l63.67431,-66.24835z"/>
  <polygon id="svg_12" fill="#ffb7b7" points="529.5306545495987,623.68701171875 517.2716213464737,623.6859741210938 511.4386135339737,576.3980102539062 529.5326076745987,576.3989868164062 529.5306545495987,623.68701171875 "/>
  <path id="svg_13" fill="#2f2e41" d="m532.65832,635.57051l-39.53076,-0.00147l0,-0.5a15.38731,15.38731 0 0 1 15.38648,-15.38623l0.001,0l24.144,0.001l-0.00072,15.8867z"/>
  <polygon id="svg_14" fill="#ffb7b7" points="586.5306545495987,623.68701171875 574.2716213464737,623.6859741210938 568.4386135339737,576.3980102539062 586.5326076745987,576.3989868164062 586.5306545495987,623.68701171875 "/>
  <path id="svg_15" fill="#2f2e41" d="m589.65832,635.57051l-39.53076,-0.00147l0,-0.5a15.38731,15.38731 0 0 1 15.38648,-15.38623l0.001,0l24.144,0.001l-0.00072,15.8867z"/>
  <path id="svg_16" fill="#2f2e41" d="m573.57363,124.73615c5.19051,-21.43132 9.588,-45.60358 -0.2009,-65.34211c-6.792,-13.69556 -31.91812,-18.30762 -46.32149,-13.37364s-24.81709,18.3202 -29.397,32.9154s-4.04773,30.32262 -2.05161,45.49533c26.48974,-0.50887 52.97952,-1.01773 77.971,0.30502z"/>
  <circle transform="rotate(-28.6632 -233.601 254.179)" id="svg_17" fill="#ffb8b8" r="30.88984" cy="479.21714" cx="512.34158"/>
  <path id="svg_18" fill="#2f2e41" d="m566.6339,87.47737a38.79871,38.79871 0 1 0 -77.55078,1.02233c26.43938,0.05614 52.87875,0.11227 77.55078,-1.02233z"/>
  <path id="svg_19" fill="#2f2e41" d="m479.26733,279.94488s-5.0268,73.01136 -2.29883,95.28324s32.42969,216.98328 32.42969,216.98328l22.40457,-0.04009l6.65133,-229.45478l26.494,231.685l23.1696,-2.40936l13.14374,-226.63s-2.06106,-84.84645 -18.813,-93.35433l-103.1811,7.93704z"/>
  <path id="svg_20" fill="#3f3d56" d="m514.41058,352.31888a103.55641,103.55641 0 0 1 -47.3103,-11.45655l-0.32007,-0.16357l12.38355,-82.17188l-0.80371,-97.93359a20.24489,20.24489 0 0 1 20.42993,-20.40918l66.45068,0.60986a21.44432,21.44432 0 0 1 21.18066,23.13672l-6.2185,78.51026l20.5647,63.72363l-3.57422,4.75195a103.46153,103.46153 0 0 1 -82.78272,41.40235z"/>
  <path id="svg_21" fill="#3f3d56" d="m471.68329,224.67337l6.96338,-71.05225l2.23779,-3.18457a20.24589,20.24589 0 0 1 28.27612,-4.87158l1.918,1.36084l-1.89331,72.00537l-37.50198,5.74219z"/>
  <path id="svg_22" fill="#3f3d56" d="m757.00806,571.80573c18.00121,-4.97253 25.683,22.36344 7.72722,27.4948c-18.00036,4.97234 -25.68216,-22.36363 -7.72722,-27.4948z"/>
  <path id="svg_23" fill="#3f3d56" d="m657.20067,606.98902c18.00121,-4.97252 25.683,22.36344 7.72721,27.49481c-18.00036,4.97233 -25.68216,-22.36364 -7.72721,-27.49481z"/>
  <path id="svg_24" fill="#3f3d56" d="m616.80705,318.68152l0.27833,-0.07825l46.36669,125.882l6.113,-1.71826l-46.69918,-126.78489l0,0a8.57441,8.57441 0 0 0 -7.17112,-8.01756c-23.188,-3.6667 -32.58718,16.917 -32.58718,16.917l0.09278,0.13684l47.40454,128.69934l6.113,-1.7182l-46.00948,-124.91257c14.00683,-13.85394 26.09862,-8.40545 26.09862,-8.40545z"/>
  <path id="svg_25" fill="#536dfe" d="m669.94792,614.07031a31.06163,31.06163 0 0 1 -29.45166,-22.0332c-8.84912,-28.96484 -29.729,-98.36524 -32.4956,-117.19922c-3.602,-24.52246 16.69531,-31.49609 17.14746,-31.64551c0.54639,-0.18359 8.707,-2.46777 20.00146,-5.6289c19.19922,-5.37305 48.21289,-13.49317 49.2793,-13.97266a34.56208,34.56208 0 0 1 27.57715,2.12988a36.09431,36.09431 0 0 1 17.92578,22.11426l29.86524,106.25293a28.72434,28.72434 0 0 1 -15.22315,33.72266c-23.04394,11.07129 -56.84131,25.83984 -84.17187,26.25683c-0.15088,0.00196 -0.30372,0.00293 -0.45411,0.00293z"/>
  <path id="svg_26" fill="#ffb7b7" d="m611.87643,314.3274l-15.01323,-87.69788l-1.67544,-29.597l-24.27148,7.95016l20.47032,114.83439a12.994,12.994 0 1 0 20.48983,-5.4897l0,0.00003z"/>
  <path id="svg_27" fill="#3f3d56" d="m600.96943,221.12893l-37.88306,-2.06054l-8.90063,-71.47852l0.86621,-0.75146a21.44517,21.44517 0 0 1 30.31152,2.21728l1.752,2.03809l0.02563,0.1289l13.82833,69.90625z"/>
  <polygon id="svg_28" fill="#3f3d56" points="755.2366482019424,570.2830200195312 716.5166164636612,439.2309875488281 625.4676052331924,464.9620056152344 624.9235988855362,463.0379943847656 717.8746486902237,436.7690124511719 718.1546169519424,437.7170104980469 757.1546169519424,569.7169799804688 755.2366482019424,570.2830200195312 "/>
  <polygon id="svg_29" fill="#3f3d56" points="67.19744837284088,275.0459899902344 63.07444727420807,185.14500427246094 105.30645716190338,102.59100341796875 107.08645594120026,103.50199890136719 65.09745752811432,185.58299255371094 69.1954494714737,274.9540100097656 67.19744837284088,275.0459899902344 "/>
  <path id="svg_30" fill="#ccc" d="m843.42843,637.60452l-921,0a1,1 0 0 1 0,-2l921,0a1,1 0 0 1 0,2z"/>
  <path id="svg_31" fill="#3f3d56" d="m132.18943,249.19192l-8.80119,-26.17966l-2.1289,-87.26856l3.75,-12.38184a34.59343,34.59343 0 1 1 65.33459,22.604l-20.09961,51.50586l1.02173,1.98291l43.5459,-0.35254l15.468,27.84277l-98.09052,22.24706z"/>
  <path id="svg_32" fill="#e5e5e5" d="m409.59462,435.49226l-0.0309,0.00612l-48.26445,9.66237l-41.51909,16.72023a4.40638,4.40638 0 0 1 -5.73343,-2.44137q-0.07623,-0.1893 -0.1347,-0.385l-30.33106,-101.56235a4.38665,4.38665 0 0 1 2.5761,-5.34824l42.27847,-17.02612l0.0309,-0.00612l48.26443,-9.66237l41.5189,-16.72017a4.4064,4.4064 0 0 1 5.73345,2.44134q0.07623,0.18932 0.13471,0.38507l30.331,101.56224a4.38671,4.38671 0 0 1 -2.57605,5.34831l-42.27828,17.02606z"/>
  <path id="svg_33" fill="#fff" d="m357.80324,367.27152c-11.06774,-3.90577 -22.50733,-7.32728 -33.99844,-10.16918l-0.57674,-0.14259l5.83415,19.53541l29.7237,-8.87683l-0.98267,-0.34681zm-28.28547,8.38009l-5.3002,-17.74749c10.93729,2.72253 21.82092,5.97047 32.377,9.66116l-27.0768,8.08633zm86.28175,18.02777q-7.72815,-4.36985 -15.67814,-8.36921q-2.19225,-1.10429 -4.39783,-2.1763q-13.46243,-6.54942 -27.33611,-11.9413l-0.10806,-0.042l-37.47129,11.1906l10.23279,34.26409l75.45248,-22.53348l-0.69384,-0.3924zm-74.30309,22.08234l-9.84482,-32.965l36.59924,-10.93017q13.37866,5.20277 26.45164,11.52625q2.26966,1.09707 4.52281,2.22742q7.87349,3.94175 15.546,8.25834l-73.27487,21.88316zm74.30308,-22.08234q-7.72815,-4.36985 -15.67814,-8.36921q-2.19225,-1.10429 -4.39783,-2.1763q-13.46243,-6.54942 -27.33611,-11.9413l-0.10806,-0.042l-37.47129,11.1906l10.2328,34.26409l75.45248,-22.53348l-0.69385,-0.3924zm-74.30308,22.08234l-9.84482,-32.965l36.59924,-10.93017q13.37866,5.20277 26.45164,11.52625q2.26966,1.09707 4.52281,2.22742q7.87349,3.94175 15.546,8.25834l-73.27487,21.88316zm16.3068,-48.4902c-11.06774,-3.90577 -22.50733,-7.32728 -33.99844,-10.16918l-0.57674,-0.14259l5.83415,19.53541l29.7237,-8.87683l-0.98267,-0.34681zm-28.28547,8.38009l-5.3002,-17.74749c10.93729,2.72253 21.82092,5.97047 32.377,9.66116l-27.0768,8.08633zm28.28547,-8.38009c-11.06774,-3.90577 -22.50733,-7.32728 -33.99844,-10.16918l-0.57674,-0.14259l5.83415,19.53541l29.7237,-8.87683l-0.98267,-0.34681zm-28.28547,8.38009l-5.3002,-17.74749c10.93729,2.72253 21.82092,5.97047 32.377,9.66116l-27.0768,8.08633zm86.28175,18.02777q-7.72815,-4.36985 -15.67814,-8.36921q-2.19225,-1.10429 -4.39783,-2.1763q-13.46243,-6.54942 -27.33611,-11.9413l-0.10806,-0.042l-37.47129,11.1906l10.2328,34.26409l75.45248,-22.53348l-0.69385,-0.3924zm-74.30308,22.08234l-9.84482,-32.965l36.59924,-10.93017q13.37866,5.20277 26.45164,11.52625q2.26966,1.09707 4.52281,2.22742q7.87349,3.94175 15.546,8.25834l-73.27487,21.88316zm-30.85947,16.29092l0.194,0.64956l25.65422,-7.6615l2.81281,9.41857l-25.65423,7.66149l0.194,0.64956l26.30378,-7.85548l-3.20078,-10.71769l-26.3038,7.85549zm37.09647,6.96232l1.96557,6.58164l0.63161,-0.2541l-1.75364,-5.872l100.03168,-29.87394l-0.194,-0.64955l-100.68122,30.06795zm95.92857,-45.98205l-0.194,-0.64956l-100.68124,30.06791l3.20078,10.71769l100.68124,-30.06793l-0.194,-0.64956l-100.03167,29.87395l-2.81281,-9.41858l100.0317,-29.87392zm-74.773,-29.13932a330.77671,330.77671 0 0 0 -47.11857,-14.18363l-1.96411,-6.57676l-0.63161,0.25407l1.97931,6.62767l0.66441,0.40056a330.09981,330.09981 0 0 1 46.93562,14.15161l0.10807,0.042l60.88131,-18.18185l-0.194,-0.64956l-60.66043,18.11589zm-46.51634,13.89187l-25.65423,7.6615l0.194,0.64956l26.30378,-7.85548l-9.72552,-32.56551l-0.63162,0.25407l9.51359,31.85586zm109.11667,-25.5122l-53.52181,15.984l0.87159,0.36584q12.31349,5.1813 24.56261,11.45543q1.74135,0.89138 3.47923,1.80682q8.64687,4.54119 17.15988,9.58753l0.63007,0.15674l17.05121,-5.09225l-0.194,-0.64956l-17.01026,5.08q-8.42256,-4.9982 -17.00186,-9.51445q-1.71591,-0.90429 -3.43633,-1.78779q-11.99006,-6.15872 -24.10921,-11.299l51.71285,-15.44378l-0.19397,-0.64953zm-115.9057,96.34306l0.194,0.64954l25.65423,-7.6615l1.9515,6.53453l0.63161,-0.25407l-2.12754,-7.124l-26.3038,7.8555zm-16.92533,-56.67379l0.194,0.64956l25.65423,-7.6615l9.84482,32.965l-25.65423,7.6615l0.194,0.64956l26.30378,-7.85548l-10.2328,-34.26411l-26.3038,7.85547zm59.14494,-24.671c-11.06774,-3.90577 -22.50733,-7.32728 -33.99844,-10.16918l-0.57674,-0.14259l5.83415,19.53541l29.7237,-8.87683l-0.98267,-0.34681zm-28.28547,8.38009l-5.3002,-17.74749c10.93729,2.72253 21.82092,5.97047 32.377,9.66116l-27.0768,8.08633zm86.28175,18.02777q-7.72815,-4.36985 -15.67814,-8.36921q-2.19225,-1.10429 -4.39783,-2.1763q-13.46243,-6.54942 -27.33611,-11.9413l-0.10806,-0.042l-37.47129,11.1906l10.23279,34.26408l75.45248,-22.53348l-0.69384,-0.39239zm-74.30309,22.08233l-9.84482,-32.965l36.59924,-10.93017q13.37866,5.20277 26.45164,11.52625q2.26966,1.09707 4.52281,2.22742q7.87349,3.94175 15.546,8.25834l-73.27487,21.88316zm16.3068,-48.4902c-11.06774,-3.90577 -22.50733,-7.32728 -33.99844,-10.16918l-0.57674,-0.14259l5.83415,19.53541l29.7237,-8.87683l-0.98267,-0.34681zm-28.28547,8.38009l-5.3002,-17.74749c10.93729,2.72253 21.82092,5.97047 32.377,9.66116l-27.0768,8.08633zm86.28175,18.02777q-7.72815,-4.36985 -15.67814,-8.36921q-2.19225,-1.10429 -4.39783,-2.1763q-13.46243,-6.54942 -27.33611,-11.9413l-0.10806,-0.042l-37.47129,11.1906l10.2328,34.26409l75.45248,-22.53348l-0.69385,-0.3924zm-74.30308,22.08234l-9.84482,-32.965l36.59924,-10.93017q13.37866,5.20277 26.45164,11.52625q2.26966,1.09707 4.52281,2.22742q7.87349,3.94175 15.546,8.25834l-73.27487,21.88316z"/>
  <path id="svg_34" fill="#536dfe" d="m366.42112,370.33096c2.45646,8.22536 -6.96462,30.99679 -6.96462,30.99679s-20.36557,-13.87581 -22.822,-22.10116a15.5433,15.5433 0 1 1 29.78665,-8.89563l-0.00003,0z"/>
  <path id="svg_35" fill="#fff" d="m358.14297,372.0979a7.10552,7.10552 0 1 1 -8.84167,-4.77509a7.10224,7.10224 0 0 1 8.84167,4.77509z"/>
  <circle id="svg_36" fill="#536dfe" r="4.18993" cy="408.06212" cx="361.46769"/>
  <path id="svg_37" fill="#fff" d="m407.18669,352.97213l-29.11906,8.69625a0.6207,0.6207 0 0 1 -0.11139,0.02388l6.64779,-27.968a1.00636,1.00636 0 0 1 1.67854,-0.50128l14.0236,13.24829l0.67157,0.63377l6.20895,5.86709z"/>
  <polygon id="svg_38" opacity="0.2" points="407.18562281131744,352.97198486328125 397.24363672733307,355.9410095214844 400.0076137781143,347.3949890136719 400.20564234256744,346.77899169921875 400.30561792850494,346.47100830078125 400.97663843631744,347.1050109863281 407.18562281131744,352.97198486328125 "/>
  <path id="svg_39" fill="#fff" d="m423.39997,348.13011l-25.18554,7.52155l2.76336,-8.5466l0.1987,-0.61556l3.60069,-11.13771a1.343,1.343 0 0 1 1.87606,-0.68466a1.19987,1.19987 0 0 1 0.12569,0.08685l16.62104,13.37613z"/>
  <g stroke="null">
   <g stroke="null">
    <title stroke="null">Layer 1</title>
    <ellipse stroke="null" cx="1294.50898" cy="628.31596" rx="251.39458" ry="11.70767" fill="#e6e6e6" id="svg_73"/>
    <path stroke="null" d="m1415.40463,449.88682a13.7704,13.7704 0 0 0 -13.46475,10.90011l19.20165,0l0,48.18992l-19.20165,0a13.76762,13.76762 0 0 0 27.23331,-2.86848l0,-42.453a13.76851,13.76851 0 0 0 -13.76855,-13.76854z" fill="#3f3d56" id="svg_72"/>
    <path stroke="null" d="m1260.59474,365.55446a24.78315,24.78315 0 0 0 -24.75493,24.75493l0,190.29237a24.78315,24.78315 0 0 0 24.75493,24.75492l120.30221,0a24.78314,24.78314 0 0 0 24.75492,-24.75492l0,-190.29237a24.78315,24.78315 0 0 0 -24.75492,-24.75493l-120.30221,0z" fill="#3f3d56" id="svg_71"/>
    <circle stroke="null" cx="1247.88729" cy="615.10941" r="12.62118" fill="#3f3d56" id="svg_70"/>
    <circle stroke="null" cx="1389.01491" cy="615.10941" r="12.62118" fill="#3f3d56" id="svg_69"/>
    <rect stroke="null" x="1257.06632" y="363.83338" width="6.88427" height="242.09699" fill="#4d4d4d" id="svg_68"/>
    <rect stroke="null" x="1276.57176" y="363.83338" width="6.88427" height="242.09699" fill="#4d4d4d" id="svg_67"/>
    <rect stroke="null" x="1296.07721" y="363.83338" width="6.88427" height="242.09699" fill="#4d4d4d" id="svg_66"/>
    <rect stroke="null" x="1315.58265" y="363.83338" width="6.88427" height="242.09699" fill="#4d4d4d" id="svg_65"/>
    <rect stroke="null" x="1335.0881" y="363.83338" width="6.88427" height="242.09699" fill="#4d4d4d" id="svg_64"/>
    <rect stroke="null" x="1354.59354" y="363.83338" width="6.88427" height="242.09699" fill="#4d4d4d" id="svg_63"/>
    <rect stroke="null" x="1374.09899" y="363.83338" width="6.88427" height="242.09699" fill="#4d4d4d" id="svg_62"/>
    <path stroke="null" d="m1379.1335,345.47533a49.79127,49.79127 0 0 0 6.86954,-25.24235l-121.90902,0a49.79127,49.79127 0 0 0 6.86954,25.24235l-24.79734,0c0,13.30725 11.23718,24.09495 25.09889,24.09495l30.71608,0a55.83495,55.83495 0 0 0 15.89612,2.2947l14.34238,0a55.83495,55.83495 0 0 0 15.89612,-2.2947l30.71609,0c13.86172,0 25.09889,-10.7877 25.09889,-24.09495l-24.7973,0z" fill="#2f2e41" id="svg_61"/>
    <path stroke="null" d="m1289.08262,519.3033a12.15311,12.15311 0 0 1 -6.71226,12.01335l-0.0617,0.03409c-11.47499,6.54503 -20.86485,11.68334 -32.00876,10.73678a7.32334,7.32334 0 0 1 -6.21633,-9.85153l15.85118,-30.14342c9.20754,-10.72748 15.69647,-10.73805 26.96341,-1.72103l2.18445,18.93175z" fill="#2f2e41" id="svg_60"/>
    <path stroke="null" d="m1354.70386,519.3033a12.15311,12.15311 0 0 0 6.71226,12.01335l0.0617,0.03409c11.47498,6.54503 20.86485,11.68334 32.00876,10.73678a7.32334,7.32334 0 0 0 6.21633,-9.85153l-15.85118,-30.14342c-9.20754,-10.72748 -15.69647,-10.73805 -26.96341,-1.72103l-2.18445,18.93175z" fill="#2f2e41" id="svg_59"/>
    <path stroke="null" d="m1308.63653,164.18943l-44.10697,0a9.29666,9.29666 0 0 1 -8.91336,-6.60379c-1.35809,-4.52652 -3.1115,-8.91833 -3.13939,-12.90166c-0.10825,-15.45935 0.66015,-25.29933 7.45796,-31.55292c22.65003,-17.17458 39.0616,-14.01541 54.50051,4.01582c5.41983,10.07351 4.02861,25.10793 1.09708,41.26418a7.01663,7.01663 0 0 1 -6.89583,5.77837z" fill="#2f2e41" id="svg_58"/>
    <circle stroke="null" cx="1285.75079" cy="153.86301" r="29.83183" fill="#a0616a" id="svg_57"/>
    <polygon stroke="null" points="1308.6982421875,213.527312874794 1267.392333984375,214.67466700077057 1263.9503173828125,169.92680323123932 1304.10888671875,168.77946436405182 1308.6982421875,213.527312874794 " fill="#a0616a" id="svg_56"/>
    <path stroke="null" d="m1378.6885,320.23298l-28.50231,13.19276c-4.77556,11.32904 -11.35908,11.00305 -19.68761,-0.57159c-7.94958,13.92143 -25.07069,5.57888 -33.43541,-0.50163a38.51113,38.51113 0 0 0 -34.83364,-0.07206l-30.40555,-134.81704c9.37207,-8.0575 21.86078,-13.11867 33.84768,-16.637l23.52127,29.25817l16.0633,-28.68448c11.16475,-8.97657 26.84685,-8.99302 43.6004,-6.88427l9.78221,52.29735c-6.4517,41.25387 3.25004,61.94524 20.04965,93.4198z" fill="#536dfe" id="svg_55"/>
    <path stroke="null" d="m1284.60342,498.07675l-24.09496,2.29476l-35.69459,-157.75749a24.99131,24.99131 0 0 1 24.3962,-30.41269l0,0a24.99131,24.99131 0 0 1 24.77615,28.26363l-4.29873,32.54746l14.91593,125.06432z" fill="#2f2e41" id="svg_54"/>
    <path stroke="null" d="m1356.8883,500.37151l24.09496,-1.14735l35.69466,-156.61013a24.9913,24.9913 0 0 0 -24.3962,-30.4127l0,0a24.99131,24.99131 0 0 0 -24.77616,28.26363l4.29873,32.54746l-14.91599,127.35909z" fill="#2f2e41" id="svg_53"/>
    <path stroke="null" d="m1435.20547,273.97037l-20.37452,52.57319c-11.13961,-8.51658 -20.12088,-9.67941 -32.47707,-5.16275c-3.41658,-0.47454 -5.96009,-7.98525 -5.96009,-11.43464l0,0a6.91082,6.91082 0 0 1 6.59702,-6.90369l18.64532,-0.84752a97.07167,97.07167 0 0 0 6.15259,-27.85713a52.72025,52.72025 0 0 1 27.41674,-0.36746z" fill="#a0616a" id="svg_52"/>
    <path stroke="null" d="m1437.20483,275.48519l4.96709,-18.53402a31.20715,31.20715 0 0 0 -14.07444,-36.51167l-79.24084,-45.92367l-1.14735,50.48463l58.51633,25.24234a103.81004,103.81004 0 0 1 1.56308,26.06968c9.12754,-2.71275 20.26596,-3.28861 29.41613,-0.82729z" fill="#536dfe" id="svg_51"/>
    <path stroke="null" d="m1315.00896,137.22602l-30.97926,5.7369a21.80018,21.80018 0 0 1 -21.80018,-21.80019l53.92682,0l-1.14739,16.06329z" fill="#2f2e41" id="svg_50"/>
    <ellipse stroke="null" cx="1258.21369" cy="142.9629" rx="2.86845" ry="5.7369" fill="#a0616a" id="svg_49"/>
    <path stroke="null" d="m1352.87248,234.27353l-0.3332,0l0,-9.12792a5.28299,5.28299 0 0 0 -5.283,-5.28299l-19.33872,0a5.28299,5.28299 0 0 0 -5.283,5.28299l0,50.07643a5.28299,5.28299 0 0 0 5.283,5.28299l19.33872,0a5.28299,5.28299 0 0 0 5.283,-5.28299l0,-34.45111l0.3332,0l0,-6.4974z" fill="#e6e6e6" id="svg_48"/>
    <circle stroke="null" cx="1336.80916" cy="234.75324" r="4.58952" fill="#536dfe" id="svg_47"/>
    <path stroke="null" d="m1332.79334,276.63258c-23.60174,18.52738 -47.26489,33.94845 -64.82692,36.14244l-2.86845,-31.55293c16.86723,-2.43141 39.41902,-13.54388 63.10585,-26.38971l11.58495,-6.02418a12.73836,12.73836 0 0 1 18.57772,10.3247l0,0a12.73835,12.73835 0 0 1 -9.48539,13.30284l-16.08777,4.19685z" fill="#a0616a" id="svg_46"/>
    <path stroke="null" d="m1288.04555,313.34868l-47.04257,1.14735c-15.82906,-31.05311 -21.57359,-64.18989 -18.35807,-99.17787a23.12786,23.12786 0 0 1 9.96322,-19.01553l4.95268,-3.42878c21.1763,31.43608 34.31121,60.62845 29.83186,84.90605l13.76854,-1.14735c-8.9165,12.03403 -4.78876,24.30624 6.88433,36.71613z" fill="#536dfe" id="svg_45"/>
    <path stroke="null" d="m1084.4979,448.85212s2.43051,-52.27479 52.25566,-46.19856" fill="#e6e6e6" id="svg_44"/>
    <path stroke="null" d="m1083.91281,625.98714c-0.06236,-0.54706 -5.94326,-55.01883 17.86898,-83.84611c8.78816,-10.63953 20.56405,-16.59786 34.99982,-17.70808l0.15888,2.05352c-13.85552,1.06597 -25.14971,6.77288 -33.56781,16.9619c-23.25511,28.1485 -17.47477,81.76751 -17.41443,82.30549l-2.04545,0.23328z" fill="#e6e6e6" id="svg_43"/>
    <rect stroke="null" x="1081.89956" y="395.40388" width="2.07263" height="229.02575" fill="#e6e6e6" id="svg_42"/>
    <circle stroke="null" cx="1083.22618" cy="381.01041" r="17.01347" fill="#536dfe" id="svg_41"/>
    <circle stroke="null" cx="1136.86116" cy="525.45935" r="16.90587" fill="#e6e6e6" id="svg_40"/>
   </g>
  </g>
 </g>
</svg>